<svg width="74" height="57" viewBox="0 0 74 57" fill="none" xmlns="http://www.w3.org/2000/svg">
<g clip-path="url(#clip0_143_1748)">
<path d="M73.7474 21.9168V21.9292C73.2611 29.5969 72.0801 48.1304 71.8464 49.1367C71.5496 50.4085 71.0569 57.6256 61.7477 56.4588C54.7753 55.5821 54.1311 45.5313 53.8974 33.3691C47.4618 30.486 36.4284 26.5842 23.8667 26.5224C18.2458 37.4561 13.1996 46.34 6.49246 44.1731C-2.41255 41.2961 0.334741 34.5853 0.625259 33.3073C0.858936 32.301 7.99558 15.0887 10.9513 7.97043V7.95808C11.2102 6.85916 11.6397 5.85285 12.2144 4.94531V4.92679H12.2207C14.4564 1.38308 18.8268 -0.555462 23.2162 0.419984C23.2162 0.419984 42.0936 -3.03729 66.036 9.93985C70.4254 10.9153 73.5011 14.5084 73.9495 18.651V18.6695C74.0632 19.7313 74.0063 20.8241 73.7474 21.9168Z" fill="white"/>
<path d="M73.9493 18.651C73.5009 14.5084 70.4252 10.9153 66.0359 9.93985C42.0934 -3.03729 23.2161 0.419984 23.2161 0.419984C18.8267 -0.555462 14.4626 1.38308 12.2269 4.93297L12.2206 4.94531C11.6522 5.85285 11.2164 6.86534 10.9638 7.95809V7.97043C7.99544 15.0949 0.865112 32.301 0.625119 33.3073C0.328285 34.5791 -2.41269 41.2961 6.49232 44.1792C13.1995 46.3462 18.2394 37.4622 23.8666 26.5286C36.4346 26.5903 47.4617 30.4921 53.8973 33.3753C54.131 45.5375 54.7752 55.5883 61.7476 56.4649C71.0505 57.6318 71.5494 50.4147 71.8463 49.1429C72.0799 48.1366 73.2609 29.6031 73.7472 21.9354V21.923C74.0062 20.8241 74.063 19.7314 73.9493 18.6756V18.6571V18.651ZM7.99544 19.0893L22.6792 25.8495C22.6792 25.8495 12.3469 25.689 7.99544 19.0893ZM19.7804 21.7069C14.191 20.466 10.6859 15.027 11.9553 9.55708C13.2311 4.09334 18.7951 0.673106 24.3844 1.91402C29.9738 3.15494 33.4789 8.59398 32.2095 14.0639C30.94 19.5276 25.376 22.954 19.7804 21.7131V21.7069ZM36.1062 22.9849C35.6957 24.7629 33.8831 25.8742 32.0705 25.4667C30.2516 25.0654 29.1148 23.2936 29.5317 21.5217C29.9422 19.7437 31.7548 18.6324 33.5673 19.0399C35.3862 19.4412 36.523 21.213 36.1062 22.9849ZM51.1626 26.331C50.7521 28.1091 48.9395 29.2203 47.127 28.8129C45.3081 28.4116 44.1712 26.6397 44.5881 24.8679C44.9986 23.0898 46.8112 21.9786 48.6238 22.386C50.4426 22.7873 51.5795 24.5592 51.1626 26.331ZM39.8324 17.7064L41.3355 11.2548L45.9712 15.1196L39.8324 17.7064ZM51.2763 8.16182L51.1184 8.8471C50.91 9.72994 50.0132 10.2856 49.1101 10.0818L38.3988 7.69879C37.4956 7.49506 36.9272 6.61839 37.1357 5.73555L37.2935 5.05027C37.502 4.16743 38.3988 3.61179 39.3019 3.81553L50.0132 6.19858C50.9163 6.40231 51.4847 7.27898 51.2763 8.16182ZM55.7162 33.19L71.9473 33.3012C65.1075 37.4129 55.7162 33.19 55.7162 33.19ZM72.162 22.9355C70.8926 28.3992 65.3285 31.8257 59.7329 30.5847C54.1436 29.3438 50.6384 23.9048 51.9079 18.4349C53.1773 12.9711 58.7414 9.54473 64.337 10.7856C69.9263 12.0266 73.4315 17.4656 72.162 22.9355Z" fill="url(#paint0_linear_143_1748)"/>
<path d="M32.2096 14.0637C33.4791 8.59998 29.9802 3.16094 24.3846 1.91385C18.7953 0.672934 13.2312 4.09317 11.9555 9.56308C10.686 15.0268 14.1849 20.4659 19.7805 21.7129C25.3698 22.9539 30.9339 19.5336 32.2096 14.0637ZM21.1889 9.32848L22.2499 4.77845C22.3952 4.15491 23.0267 3.76596 23.6646 3.90796L24.1572 4.01909C24.7951 4.16108 25.193 4.77845 25.0477 5.402L23.9867 9.95202C23.8414 10.5756 23.2099 10.9645 22.572 10.8225L22.0794 10.7114C21.4415 10.5694 21.0436 9.95202 21.1889 9.32848ZM14.5575 11.5757C13.9196 11.4337 13.5217 10.8163 13.667 10.1928L13.7807 9.71125C13.9259 9.0877 14.5575 8.69876 15.1954 8.84075L19.85 9.87794C20.4879 10.0199 20.8857 10.6373 20.7405 11.2608L20.6268 11.7424C20.4815 12.3659 19.85 12.7549 19.2121 12.6129L14.5575 11.5757ZM22.9762 14.2921L21.9152 18.8422C21.7699 19.4657 21.1384 19.8547 20.5005 19.7127L20.0079 19.6015C19.37 19.4595 18.9721 18.8422 19.1174 18.2186L20.1784 13.6624C20.3236 13.0389 20.9552 12.6499 21.5931 12.7919L22.0857 12.9031C22.7236 13.0451 23.1215 13.6624 22.9762 14.286V14.2921ZM28.9697 14.7799L24.3151 13.7427C23.6772 13.6007 23.2794 12.9833 23.4246 12.3598L23.5383 11.8782C23.6835 11.2547 24.3151 10.8657 24.953 11.0077L29.6076 12.0449C30.2455 12.1869 30.6434 12.8043 30.4981 13.4278L30.3844 13.9094C30.2392 14.5329 29.6076 14.9219 28.9697 14.7799Z" fill="#00AEFF"/>
<path d="M64.3497 10.7978C58.7604 9.5569 53.1964 12.9771 51.9206 18.447C50.6512 23.9108 54.15 29.3498 59.7457 30.5969C65.335 31.8378 70.899 28.4176 72.1748 22.9477C73.4442 17.4839 69.9454 12.0449 64.3497 10.7978ZM60.6677 14.3909C61.0277 12.8413 62.6066 11.8659 64.1982 12.2178C65.7834 12.5697 66.7813 14.1131 66.4213 15.6689C66.0613 17.2185 64.4824 18.1939 62.8908 17.842C61.3056 17.4901 60.3078 15.9467 60.6677 14.3909ZM55.8742 22.0155C54.289 21.6635 53.2911 20.1201 53.6511 18.5643C54.0111 17.0147 55.59 16.0393 57.1815 16.3912C58.7667 16.7431 59.7646 18.2865 59.4046 19.8423C59.0446 21.3919 57.4657 22.3674 55.8742 22.0155ZM63.8761 26.5963C63.5161 28.1459 61.9372 29.1214 60.3457 28.7695C58.7604 28.4176 57.7626 26.8742 58.1226 25.3184C58.4825 23.7688 60.0614 22.7933 61.653 23.1452C63.2382 23.4971 64.2361 25.0406 63.8761 26.5963ZM70.899 22.3982C70.539 23.9478 68.9601 24.9233 67.3686 24.5714C65.7834 24.2195 64.7855 22.676 65.1455 21.1203C65.5055 19.5707 67.0844 18.5952 68.6759 18.9471C70.2612 19.299 71.259 20.8424 70.899 22.3982Z" fill="#00AEFF"/>
<path d="M71.9537 33.3072L55.7226 33.196C55.7226 33.196 65.1076 37.4189 71.9537 33.3072Z" fill="#010055"/>
<path d="M22.6794 25.8493L7.99557 19.0891C12.347 25.6888 22.6794 25.8493 22.6794 25.8493Z" fill="#010055"/>
<path d="M21.1959 9.33203L22.2537 4.78069C22.3978 4.1606 23.0327 3.76979 23.667 3.91067L24.1597 4.02009C24.7941 4.16097 25.1939 4.78157 25.0498 5.40166L23.992 9.953C23.8478 10.5731 23.213 10.9639 22.5786 10.823L22.0859 10.7136C21.4516 10.5727 21.0518 9.95212 21.1959 9.33203Z" fill="#FFAC04"/>
<path d="M23.4291 12.3607L23.5411 11.8791C23.6854 11.2591 24.3203 10.8684 24.9546 11.0094L29.6104 12.0442C30.2447 12.1852 30.6444 12.8058 30.5002 13.4259L30.3881 13.9075C30.2439 14.5276 29.609 14.9183 28.9747 14.7773L24.3189 13.7425C23.6846 13.6015 23.2849 12.9808 23.4291 12.3607Z" fill="#FFAC04"/>
<path d="M13.7812 9.71714L13.6691 10.1987C13.5244 10.8204 13.9226 11.4391 14.5586 11.5806L19.2142 12.6162C19.8502 12.7577 20.4831 12.3684 20.6278 11.7467L20.7399 11.2651C20.8847 10.6434 20.4864 10.0247 19.8504 9.88323L15.1948 8.8476C14.5588 8.70613 13.9259 9.09543 13.7812 9.71714Z" fill="#FFAC04"/>
<path d="M19.1205 18.2235L20.1815 13.6729C20.3261 13.0529 20.9612 12.6626 21.5955 12.8039L22.0881 12.9136C22.7223 13.0549 23.1217 13.6758 22.9771 14.2958L21.9161 18.8464C21.7715 19.4664 21.1364 19.8568 20.5021 19.7155L20.0095 19.6057C19.3753 19.4644 18.9759 18.8435 19.1205 18.2235Z" fill="#FFAC04"/>
<path d="M62.8845 17.8358C64.4698 18.1878 66.0487 17.2185 66.415 15.6627C66.775 14.1131 65.7834 12.5697 64.1919 12.2116C62.6066 11.8597 61.0277 12.829 60.6614 14.3847C60.3015 15.9343 61.293 17.4778 62.8845 17.8358Z" fill="#FFAC04"/>
<path d="M61.6467 23.1452C60.0615 22.7933 58.4826 23.7626 58.1162 25.3184C57.7563 26.868 58.7478 28.4114 60.3393 28.7695C61.9246 29.1214 63.5035 28.1521 63.8698 26.5963C64.2298 25.0467 63.2382 23.5033 61.6467 23.1452Z" fill="#FFAC04"/>
<path d="M59.3983 19.8423C59.7583 18.2927 58.7668 16.7493 57.1752 16.3912C55.59 16.0393 54.0111 17.0086 53.6448 18.5643C53.2848 20.1139 54.2764 21.6574 55.8679 22.0154C57.4531 22.3674 59.032 21.3981 59.3983 19.8423Z" fill="#FFAC04"/>
<path d="M65.1455 21.1203C64.7855 22.6699 65.7771 24.2133 67.3686 24.5714C68.9538 24.9233 70.5327 23.954 70.899 22.3982C71.259 20.8486 70.2675 19.3052 68.6759 18.9471C67.0907 18.5952 65.5118 19.5645 65.1455 21.1203Z" fill="#FFAC04"/>
<path d="M33.5675 19.0459C31.7486 18.6446 29.9423 19.7559 29.5318 21.5277C29.1213 23.3058 30.2581 25.0714 32.0707 25.4727C33.8896 25.874 35.6958 24.7628 36.1063 22.9909C36.5169 21.2129 35.3801 19.4472 33.5675 19.0459Z" fill="#010055"/>
<path d="M48.6239 22.392C46.805 21.9908 44.9987 23.102 44.5882 24.8739C44.1777 26.6519 45.3145 28.4176 47.1271 28.8189C48.946 29.2202 50.7522 28.1089 51.1628 26.337C51.5733 24.559 50.4365 22.7933 48.6239 22.392Z" fill="#010055"/>
<path d="M37.1334 5.74656L37.293 5.06027C37.4988 4.17532 38.3983 3.62183 39.3036 3.82304L50.0131 6.20343C50.9184 6.40465 51.4846 7.28393 51.2788 8.16888L51.1191 8.85516C50.9133 9.74011 50.0138 10.2936 49.1085 10.0924L38.399 7.712C37.4937 7.51078 36.9275 6.6315 37.1334 5.74656Z" fill="#010055"/>
<path d="M41.3357 11.2608L39.8326 17.7124L45.9713 15.1256L41.3357 11.2608Z" fill="white"/>
</g>
<defs>
<linearGradient id="paint0_linear_143_1748" x1="-0.000126557" y1="28.2943" x2="73.9999" y2="28.2943" gradientUnits="userSpaceOnUse">
<stop stop-color="#7D0ECF"/>
<stop offset="1" stop-color="#00AEFF"/>
</linearGradient>
<clipPath id="clip0_143_1748">
<rect width="74" height="56.5882" fill="white"/>
</clipPath>
</defs>
</svg>
