<svg width="74" height="82" viewBox="0 0 74 82" fill="none" xmlns="http://www.w3.org/2000/svg">
<g clip-path="url(#clip0_143_1720)">
<path d="M60.3693 44.86C58.6773 41.5779 57.7783 37.9267 57.1976 34.2978C56.6001 30.546 56.5275 26.727 55.9188 22.9752C55.3381 19.4134 53.8639 16.0921 50.9881 13.8164C47.9839 11.4457 44.304 10.4336 40.5403 10.0981C39.4961 10.0031 38.4463 9.96392 37.3965 9.95833C37.1284 9.74586 36.7822 9.61726 36.3355 9.63962C30.1037 9.88564 22.5485 10.8194 19.6559 17.2607C18.1538 20.61 17.9472 24.3618 16.7299 27.8174C15.5572 31.1554 13.7591 34.3258 11.4753 37.0264C9.12437 39.8054 6.11456 42.3215 5.46122 46.1013C5.13176 48.008 5.42213 49.9426 6.54453 51.553C7.02476 52.2351 7.61667 52.8558 7.97964 53.6162C8.30909 54.3039 8.39844 55.0476 8.38169 55.8024C8.31468 59.202 6.50544 62.35 6.73439 65.8055C6.94658 69.0262 8.44311 72.0735 10.7661 74.3045C13.1002 76.5466 16.2329 77.9613 19.494 77.9109C23.2465 77.8494 26.8817 76.0099 30.6453 76.843C34.0014 77.5866 36.9609 79.4654 40.1941 80.5613C43.2932 81.6125 46.6269 81.7467 49.7261 80.6004C52.8085 79.4598 55.5056 77.3798 57.2366 74.5617C58.1357 73.1079 58.6718 71.4752 59.0571 69.8146C59.4759 68.0029 59.7327 66.0963 60.5648 64.4076C62.1004 61.282 64.6244 58.5534 64.5574 54.8575C64.4903 51.0777 62.0334 48.0639 60.3749 44.86H60.3693Z" fill="url(#paint0_linear_143_1720)"/>
<path d="M29.7463 54.6059C29.5229 57.6364 27.2781 62.5793 26.9431 63.5913C26.608 64.6034 37.067 70.0103 45.1136 64.1505C45.7335 63.7031 42.0312 60.7788 42.3663 54.3263L29.7463 54.6059Z" fill="#FFAC04"/>
<path d="M21.7052 38.3572C22.7551 45.8106 25.24 58.1229 35.8832 58.1229C46.5264 58.1229 50.117 47.3426 50.5637 38.3572C51.0104 29.3718 31.8682 26.8277 31.8682 26.8277C31.8682 26.8277 21.1245 34.281 21.6997 38.3572H21.7052Z" fill="#FFAC04"/>
<path d="M56.695 35.595L57.5717 35.3658C57.89 35.2819 58.1133 34.9967 58.1133 34.6724V25.1279C58.1133 24.8036 57.89 24.5184 57.5717 24.4345L56.695 24.2053C56.2315 24.0823 55.7792 24.4289 55.7792 24.8986V34.9017C55.7792 35.3714 56.2315 35.718 56.695 35.595Z" fill="#010055"/>
<path d="M54.6065 36.5232L56.3264 36.0144L56.6168 34.1692L54.6065 24.6526V36.5232Z" fill="#010055"/>
<path d="M15.1496 35.595L14.2673 35.3658C13.949 35.2819 13.7256 34.9967 13.7256 34.6724V25.1279C13.7256 24.8036 13.949 24.5184 14.2673 24.4345L15.1496 24.2053C15.613 24.0823 16.0653 24.4289 16.0653 24.8986V34.9017C16.0653 35.3714 15.613 35.718 15.1496 35.595Z" fill="#010055"/>
<path d="M17.2324 36.5232L15.5181 36.0144L15.2222 34.1692L17.2324 24.6526V36.5232Z" fill="#010055"/>
<path d="M19.4158 21.4543H52.4623C53.9476 21.4543 55.1538 22.6621 55.1538 24.1494V37.032C55.1538 38.5193 53.9476 39.7271 52.4623 39.7271H19.4158C17.9304 39.7271 16.7243 38.5193 16.7243 37.032V24.1494C16.7243 22.6621 17.9304 21.4543 19.4158 21.4543Z" fill="#010055"/>
<path d="M15.4734 33.9288L14.6079 33.6995C14.2952 33.6157 14.0774 33.3305 14.0774 33.0062V24.8371C14.0774 24.5128 14.2952 24.2277 14.6079 24.1438L15.4734 23.9145C15.9257 23.7915 16.3725 24.1382 16.3725 24.6079V33.2354C16.3725 33.7051 15.9257 34.0518 15.4734 33.9288Z" fill="#010055"/>
<path d="M17.5172 34.857L15.2222 34.1692V23.6797L17.5172 22.9919V34.857Z" fill="#010055"/>
<path d="M56.3711 33.9288L57.2366 33.6995C57.5493 33.6157 57.7671 33.3305 57.7671 33.0062V24.8371C57.7671 24.5128 57.5493 24.2277 57.2366 24.1438L56.3711 23.9145C55.9188 23.7915 55.4721 24.1382 55.4721 24.6079V33.2354C55.4721 33.7051 55.9188 34.0518 56.3711 33.9288Z" fill="#010055"/>
<path d="M54.3218 34.857L56.6168 34.1692V23.6797L54.3218 22.9919V34.857Z" fill="#010055"/>
<path d="M52.0937 19.7881H19.6838C18.2128 19.7881 17.0202 20.9822 17.0202 22.4552V35.3881C17.0202 36.8612 18.2128 38.0553 19.6838 38.0553H52.0937C53.5648 38.0553 54.7573 36.8612 54.7573 35.3881V22.4552C54.7573 20.9822 53.5648 19.7881 52.0937 19.7881Z" fill="#010055"/>
<path d="M21.9509 21.4543H49.821C51.0551 21.4543 52.0546 22.4552 52.0546 23.6909V34.1636C52.0546 35.3937 51.0551 36.4002 49.821 36.4002H21.9509C20.7224 36.4002 19.7229 35.3993 19.7229 34.1692V23.6965C19.7229 22.4664 20.7224 21.4655 21.9509 21.4655V21.4543Z" fill="#00AEFF"/>
<g opacity="0.43">
<path d="M19.8625 27.89C23.0175 31.5245 25.3405 33.3808 27.8086 36.3946H30.9469C29.428 34.7451 21.722 27.3756 19.7229 24.9993V27.795C19.7676 27.8285 19.8234 27.8453 19.8625 27.89Z" fill="white"/>
<path d="M27.8086 21.4543H23.7267C28.462 26.0896 32.5495 31.3176 36.8046 36.3946H42.3049C37.5584 31.3288 32.8399 26.2406 27.8086 21.4543Z" fill="white"/>
</g>
<path d="M37.8823 41.5387C37.1787 41.6953 36.4695 41.768 35.7492 41.7624C35.3974 41.7624 35.0456 41.7344 34.6938 41.6953C34.4034 41.6617 34.1242 41.6058 33.8785 41.4325C33.7277 41.3206 33.4932 41.4045 33.4094 41.5555C33.3927 41.589 33.3815 41.6226 33.3759 41.6561C33.2307 41.7791 33.1637 42.0196 33.3313 42.1761C34.0739 42.8695 34.9841 43.5516 36.0563 43.5293C36.9944 43.5125 37.899 42.9142 38.2787 42.0475C38.396 41.7736 38.2006 41.4716 37.8879 41.5387H37.8823Z" fill="#010055"/>
<path d="M40.7804 47.5048C37.9381 48.3547 34.7329 48.8579 31.9352 47.5719C31.8124 47.516 31.7007 47.5215 31.6002 47.5551C31.3098 47.3873 30.8352 47.611 30.958 48.0304C31.3322 49.3276 31.9743 50.6304 32.9292 51.5977C33.9455 52.6209 35.2522 52.7495 36.6259 52.6433C37.8655 52.5482 39.0438 52.2183 39.8702 51.2287C40.624 50.3173 40.9926 49.1654 41.3165 48.0415C41.4058 47.7284 41.0987 47.4153 40.786 47.5104L40.7804 47.5048Z" fill="white"/>
<path opacity="0.43" d="M39.1275 21.4543H32.382C37.2736 26.2797 41.9084 31.3567 46.6269 36.3499H48.721C50.5693 36.3499 52.0546 34.4544 52.0546 32.7043V30.5907C47.7437 27.549 43.4943 24.4178 39.1331 21.4543H39.1275Z" fill="white"/>
<path d="M56.4604 0.268388C55.7904 1.63829 55.1203 3.00819 54.4558 4.37809C54.3608 4.57379 54.2659 4.77508 54.171 4.97078C53.8974 5.52992 54.7741 5.92132 55.0421 5.37336C55.7122 4.00346 56.3767 2.63356 57.0468 1.26925C57.1417 1.07355 57.2422 0.872262 57.3371 0.676562C57.6052 0.11742 56.7341 -0.279572 56.466 0.279571L56.4604 0.268388Z" fill="#FFAC04"/>
<path d="M67.7793 12.3403C66.6737 13.0783 65.5736 13.8108 64.4736 14.5433C64.3172 14.6495 64.1665 14.7502 64.0101 14.8564C63.4964 15.1975 64.0604 15.9803 64.5741 15.6336C65.6742 14.9012 66.7798 14.1631 67.8799 13.4306C68.0306 13.33 68.187 13.2237 68.3433 13.1175C68.8571 12.7764 68.2931 11.9992 67.7793 12.3403Z" fill="#FFAC04"/>
<path d="M73.4918 27.7447C72.1405 27.8006 70.7892 27.8621 69.4378 27.9236C69.2424 27.9348 69.0525 27.9404 68.8571 27.9515C68.2372 27.9739 68.3266 28.9356 68.9408 28.9077C70.2922 28.8462 71.6379 28.7903 72.9949 28.7288C73.1903 28.7176 73.3802 28.712 73.5756 28.7008C74.1954 28.6784 74.1061 27.7167 73.4918 27.7503V27.7447Z" fill="#FFAC04"/>
<path d="M67.6119 40.7951C68.7845 41.5387 69.9516 42.2824 71.1242 43.026C71.2918 43.1379 71.4593 43.2385 71.6324 43.3447C71.8502 43.4845 72.1294 43.4957 72.3025 43.2776C72.4532 43.0931 72.4532 42.7409 72.2355 42.6011C71.0628 41.8574 69.8902 41.1194 68.7175 40.3757C68.55 40.2695 68.3769 40.1576 68.2149 40.0514C67.9916 39.9116 67.7179 39.9004 67.5393 40.1241C67.3885 40.303 67.3885 40.6609 67.6063 40.7951H67.6119Z" fill="#FFAC04"/>
<path d="M17.5395 0.268388C18.2096 1.63829 18.8797 3.00819 19.5442 4.37809C19.6392 4.57379 19.7341 4.77508 19.829 4.97078C20.1026 5.52992 19.2259 5.92132 18.9579 5.37336C18.2878 4.00346 17.6233 2.63356 16.9532 1.26925C16.8583 1.07355 16.7578 0.872262 16.6629 0.676562C16.3948 0.11742 17.2659 -0.279572 17.534 0.279571L17.5395 0.268388Z" fill="#FFAC04"/>
<path d="M6.22064 12.3403C7.32628 13.0783 8.42634 13.8108 9.5264 14.5433C9.68275 14.6495 9.83352 14.7502 9.98988 14.8564C10.5036 15.1975 9.93962 15.9803 9.42589 15.6336C8.32583 14.9012 7.22018 14.1631 6.12012 13.4306C5.96935 13.33 5.813 13.2237 5.65665 13.1175C5.14291 12.7764 5.7069 11.9992 6.22064 12.3403Z" fill="#FFAC04"/>
<path d="M0.508149 27.7447C1.85949 27.8006 3.21084 27.8621 4.56218 27.9236C4.75762 27.9348 4.94748 27.9404 5.14292 27.9515C5.76275 27.9739 5.67341 28.9356 5.05916 28.9077C3.70782 28.8462 2.36206 28.7903 1.00513 28.7288C0.809688 28.7176 0.61983 28.712 0.424388 28.7008C-0.195443 28.6784 -0.106098 27.7167 0.508149 27.7503V27.7447Z" fill="#FFAC04"/>
</g>
<defs>
<linearGradient id="paint0_linear_143_1720" x1="5.33279" y1="45.5198" x2="64.5518" y2="45.5198" gradientUnits="userSpaceOnUse">
<stop stop-color="#7D0ECF"/>
<stop offset="1" stop-color="#00AEFF"/>
</linearGradient>
<clipPath id="clip0_143_1720">
<rect width="74" height="81.4" fill="white"/>
</clipPath>
</defs>
</svg>
