<svg width="51" height="51" viewBox="0 0 51 51" fill="none" xmlns="http://www.w3.org/2000/svg">
<g clip-path="url(#clip0_36_122)">
<path d="M13.5067 20.9704C13.5067 20.9704 9.60677 18.7541 10.1465 15.5147C10.6862 12.2708 15.6093 12.2708 16.2663 11.2985C16.928 10.3262 14.1638 6.97632 16.6887 5.13778C19.2089 3.29923 20.171 4.16551 21.1894 4.16551C22.2078 4.16551 21.6681 -0.156675 26.0467 -7.19354e-06C30.4301 0.161269 29.8294 4.48346 30.6084 5.18846C31.3875 5.89347 34.6304 4.32218 35.5878 5.99945C36.5499 7.67672 33.4571 9.48301 34.269 10.2157C35.081 10.9437 37.451 10.7041 37.451 12.3768C37.451 14.0494 35.0481 13.7822 35.0481 14.9157C35.0481 16.0492 39.0701 15.3488 39.3705 17.3993C39.6708 19.4545 36.2214 21.8045 36.2214 21.8045C36.2214 22.5233 13.5067 21.6893 13.5067 20.9658V20.9704Z" fill="#010055"/>
<path d="M22.968 11.2248C22.968 11.2248 25.6572 9.02223 26.0279 8.50615C26.1875 8.81488 27.9756 11.0912 27.9756 11.0912C27.9756 11.0912 27.5016 14.5517 25.3427 14.5517C23.1839 14.5517 22.968 11.2248 22.968 11.2248Z" fill="#FFAC04"/>
<path d="M33.3163 38.6048C33.3163 38.6048 51 37.4022 51 46.5442C50.5213 53.8523 26.5395 48.3597 26.5395 48.3597C26.5395 48.3597 20.9922 50.7051 13.1688 50.7051C8.28329 50.1614 0.840019 50.1337 0.840019 45.7148C0.75085 42.3556 1.16854 42.3188 3.32267 41.2774C6.7111 39.9595 16.2522 38.8721 16.2522 38.8721L33.321 38.6094L33.3163 38.6048Z" fill="#010055"/>
<path d="M51 46.0189C50.8217 48.7606 49.4419 49.8987 43.369 50.5945C37.3008 51.2949 25.4789 48.4058 23.8973 48.1247C21.4663 47.6961 17.327 49.4932 11.0007 49.4932C7.19925 49.4932 11.9393 47.0925 19.636 44.7102C27.5298 42.2681 37.024 40.5125 42.9467 40.7935C47.9777 40.2775 50.7888 42.6321 51 46.0189Z" fill="#00AEFF"/>
<path d="M30.3879 45.4844C30.3879 45.4844 30.5521 45.4475 31.0496 45.2217C31.4673 45.0005 31.2749 44.42 31.8662 44.337C32.4575 44.2541 32.5889 44.9038 33.4149 44.8946C34.3113 44.8393 34.4943 44.1942 35.1373 44.231C35.7803 44.2679 35.907 44.5812 35.907 44.5812C35.907 44.5812 36.6015 44.6411 36.6907 44.9637C36.7236 45.5996 36.2402 45.3369 35.7615 45.2494C35.2734 45.2079 34.6586 45.7701 33.964 46.0972C33.2694 46.4244 32.1478 46.4474 31.7066 46.535C31.2655 46.6225 30.8525 46.8529 30.8525 46.8529L30.3832 45.4844H30.3879Z" fill="#FFAC04"/>
<path d="M31.1246 46.7147C31.1246 46.7147 28.1304 48.6315 22.4471 49.8619C20.3446 50.318 17.2002 51 14.5861 50.9954C11.2399 50.9954 8.73381 50.7374 6.58437 50.4885C1.94758 49.3043 0.25806 49.0601 0.00932534 45.8254C-0.0657644 43.0883 0.281526 42.8118 1.96635 41.6921C7.55115 39.0379 30.782 45.3185 30.782 45.3185L31.1246 46.7147Z" fill="url(#paint0_linear_36_122)"/>
<path d="M24.6012 13.6301L24.5261 15.699H26.2813L26.1687 13.5472L24.6012 13.6301Z" fill="#FFAC04"/>
<path d="M13.8634 28.2371C13.8634 28.2371 7.23675 32.2321 6.75805 30.2046C6.27935 28.1772 10.9068 22.7353 11.5216 21.9197C13.2486 19.6296 17.5851 15.2751 25.5633 15.2751C30.6366 15.2751 34.0532 17.2473 36.4513 19.1549C37.8874 20.3023 42.3647 24.7581 43.9885 30.1816C43.9885 30.1816 33.2553 27.4583 32.0539 28.7624C30.1063 30.882 33.7857 38.6785 33.7857 38.6785C33.7857 38.6785 34.3676 40.7244 25.9059 40.7244C17.4443 40.7244 16.9139 38.8582 16.9139 38.8582C16.9139 38.8582 20.5276 30.2046 19.3262 28.9467C18.7959 27.3247 13.8634 28.2371 13.8634 28.2371Z" fill="url(#paint1_linear_36_122)"/>
<path d="M21.0955 43.2173C21.2785 43.1067 21.3724 42.6413 21.8417 42.4432C22.311 42.2496 22.6677 42.7335 23.1511 42.5399C23.6345 42.3464 23.6439 42.0653 24.3056 41.858C24.9673 41.6506 25.0096 41.9686 25.0706 42.0699C25.1269 42.1713 25.0283 42.8348 25.1457 43.1804C25.1128 43.4339 23.8175 44.0421 23.3717 43.844C22.9211 43.6412 22.1608 43.6458 22.1608 43.6458C22.1608 43.6458 21.5883 43.5951 21.3536 43.6873C21.1237 43.7795 21.0533 44.0237 20.9406 44.0421C20.828 44.0605 20.4009 43.9269 20.5746 43.5675C20.7388 43.2449 20.9172 43.3279 21.1002 43.2127L21.0955 43.2173Z" fill="#FFAC04"/>
<path d="M23.7048 24.0669C23.7048 24.0669 24.2727 23.9471 24.2398 23.8273C24.207 23.7075 24.268 22.6431 24.3243 22.339C24.3806 22.0349 25.0564 20.0028 25.1738 19.8784C25.2911 19.754 25.3662 20.247 25.3662 20.247C25.3662 20.247 25.4225 23.9471 25.3193 24.1361C25.216 24.325 24.1835 24.9655 24.1835 24.9655L23.7095 24.0669H23.7048Z" fill="#FFAC04"/>
<path d="M26.211 25.1406C26.211 25.1406 25.3522 24.3112 25.3194 24.1407C25.2818 23.9702 25.3569 20.4083 25.3569 20.4083C25.3569 20.4083 25.3757 19.8185 25.5024 19.8922C25.6244 19.9613 26.2814 22.1132 26.2955 22.2837C26.4785 23.0486 26.3284 23.7168 26.3659 23.8089C26.4035 23.9011 26.9009 24.2467 26.9009 24.2467L26.211 25.1406Z" fill="#FFAC04"/>
<path d="M5.95086 30.9926C5.95086 30.9926 8.27395 32.5454 12.6855 31.4027C20.3587 29.4674 24.5403 24.7351 24.5403 24.7351L24.1226 23.9379C24.1226 23.9379 13.9995 24.9332 10.2779 26.3294C6.55627 27.7256 5.94617 30.9926 5.94617 30.9926H5.95086Z" fill="#00AEFF"/>
<path d="M44.2982 30.9926C44.2982 30.9926 42.2004 33.0108 37.7888 31.8635C30.1156 29.9282 25.8308 24.7581 25.8308 24.7581L26.4644 23.9149C26.4644 23.9149 36.2448 24.9378 39.9665 26.334C43.6881 27.7302 44.2982 30.9972 44.2982 30.9972V30.9926Z" fill="#00AEFF"/>
</g>
<defs>
<linearGradient id="paint0_linear_36_122" x1="-6.08764e-05" y1="46.0189" x2="31.1246" y2="46.0189" gradientUnits="userSpaceOnUse">
<stop stop-color="#7D0ECF"/>
<stop offset="1" stop-color="#00AEFF"/>
</linearGradient>
<linearGradient id="paint1_linear_36_122" x1="6.7252" y1="27.9975" x2="43.9932" y2="27.9975" gradientUnits="userSpaceOnUse">
<stop stop-color="#7D0ECF"/>
<stop offset="1" stop-color="#00AEFF"/>
</linearGradient>
<clipPath id="clip0_36_122">
<rect width="51" height="51" fill="white"/>
</clipPath>
</defs>
</svg>
