<svg width="27" height="24" viewBox="0 0 27 24" fill="none" xmlns="http://www.w3.org/2000/svg">
<path d="M0.825378 10.4885C0.825378 4.69639 6.61674 0 13.7629 0C20.9079 0 26.7004 4.69639 26.7004 10.4885C26.7004 16.2816 20.9079 20.978 13.7629 20.978C12.987 20.978 12.2285 20.9226 11.4905 20.817C11.4894 20.817 11.4872 20.8159 11.4862 20.8159C9.73858 20.4134 8.99842 22.2911 5.01632 23.2645C4.19826 23.4652 4.09979 23.2655 4.72632 22.6236C5.86036 21.4641 6.95327 19.5739 5.81707 18.7657C5.78244 18.7458 5.3442 18.4541 5.17756 18.336C2.50803 16.4144 0.825378 13.6093 0.825378 10.4885ZM19.8242 5.86245H7.97937C7.55679 5.86245 7.25155 6.16868 7.25155 6.55433C7.25155 6.9513 7.55679 7.25753 7.97937 7.25753H19.8242C20.2351 7.25753 20.552 6.9513 20.552 6.55433C20.552 6.16868 20.2351 5.86245 19.8242 5.86245ZM19.8242 9.82088H7.97937C7.55679 9.82088 7.25155 10.1384 7.25155 10.5354C7.25155 10.9211 7.55679 11.216 7.97937 11.216H19.8242C20.2351 11.216 20.552 10.9211 20.552 10.5354C20.552 10.1384 20.2351 9.82088 19.8242 9.82088ZM15.6451 13.6054H7.97937C7.55679 13.6054 7.25155 13.9229 7.25155 14.3199C7.25155 14.7056 7.55679 15.0005 7.97937 15.0005H15.6451C16.056 15.0005 16.3729 14.7056 16.3729 14.3199C16.3729 13.9229 16.056 13.6054 15.6451 13.6054Z" fill="black"/>
</svg>
