<svg width="26" height="25" viewBox="0 0 26 25" fill="none" xmlns="http://www.w3.org/2000/svg">
<path d="M12.9375 14.3229C11.7114 14.3229 10.5129 13.9716 9.4934 13.3135C8.47395 12.6553 7.67938 11.7199 7.21017 10.6254C6.74097 9.531 6.6182 8.32669 6.8574 7.16483C7.0966 6.00296 7.68702 4.93572 8.55399 4.09806C9.42097 3.2604 10.5256 2.68995 11.7281 2.45884C12.9306 2.22773 14.1771 2.34635 15.3098 2.79968C16.4426 3.25302 17.4108 4.02072 18.092 5.0057C18.7731 5.99068 19.1367 7.14871 19.1367 8.33334C19.1339 9.92103 18.4798 11.4429 17.3179 12.5656C16.1559 13.6882 14.5808 14.3202 12.9375 14.3229V14.3229ZM12.9375 3.90625C12.0313 3.90625 11.1454 4.1659 10.3919 4.65235C9.63835 5.1388 9.05106 5.83022 8.70426 6.63916C8.35745 7.44811 8.26672 8.33825 8.44351 9.19702C8.62031 10.0558 9.05671 10.8446 9.69752 11.4638C10.3383 12.0829 11.1548 12.5045 12.0436 12.6754C12.9324 12.8462 13.8537 12.7585 14.691 12.4234C15.5282 12.0884 16.2438 11.5209 16.7473 10.7929C17.2508 10.0649 17.5195 9.20893 17.5195 8.33334C17.5167 7.16005 17.033 6.0356 16.1743 5.20595C15.3157 4.37631 14.1519 3.909 12.9375 3.90625V3.90625Z" fill="white"/>
<path d="M22.6406 22.6562C22.427 22.6535 22.223 22.5704 22.072 22.4244C21.9209 22.2785 21.8348 22.0814 21.832 21.875C21.8292 19.8729 21.0048 17.9536 19.5395 16.5379C18.0743 15.1222 16.0878 14.3257 14.0156 14.3229H11.8594C9.78721 14.3257 7.80073 15.1222 6.33549 16.5379C4.87025 17.9536 4.04582 19.8729 4.04297 21.875C4.04297 22.0822 3.95778 22.2809 3.80614 22.4274C3.6545 22.5739 3.44883 22.6562 3.23438 22.6562C3.01992 22.6562 2.81425 22.5739 2.66261 22.4274C2.51097 22.2809 2.42578 22.0822 2.42578 21.875C2.42863 19.4585 3.42344 17.1418 5.19197 15.4331C6.96049 13.7243 9.35831 12.7632 11.8594 12.7604H14.0156C16.5167 12.7632 18.9145 13.7243 20.683 15.4331C22.4516 17.1418 23.4464 19.4585 23.4492 21.875C23.4464 22.0814 23.3603 22.2785 23.2093 22.4244C23.0583 22.5704 22.8542 22.6535 22.6406 22.6562Z" fill="white"/>
</svg>
