<svg width="28" height="27" viewBox="0 0 28 27" fill="none" xmlns="http://www.w3.org/2000/svg">
<path d="M16.0732 2.73301L18.1849 6.99145C18.4729 7.58424 19.2408 8.15284 19.8887 8.26172L23.7163 8.90291C26.164 9.31423 26.74 11.1047 24.9762 12.871L22.0005 15.8713C21.4966 16.3794 21.2206 17.3593 21.3766 18.061L22.2285 21.775C22.9004 24.7148 21.3526 25.852 18.7729 24.3155L15.1853 22.1742C14.5373 21.7871 13.4695 21.7871 12.8095 22.1742L9.22192 24.3155C6.6542 25.852 5.09438 24.7027 5.7663 21.775L6.61821 18.061C6.77419 17.3593 6.49822 16.3794 5.99428 15.8713L3.01861 12.871C1.2668 11.1047 1.83074 9.31423 4.27847 8.90291L8.10604 8.26172C8.74197 8.15284 9.50989 7.58424 9.79786 6.99145L11.9096 2.73301C13.0615 0.422329 14.9333 0.422329 16.0732 2.73301Z" stroke="#9E9E9E" stroke-width="2" stroke-linecap="round" stroke-linejoin="round"/>
</svg>
