<svg width="27" height="28" viewBox="0 0 27 28" fill="none" xmlns="http://www.w3.org/2000/svg">
<path d="M19.3856 3.62579C21.9216 3.62579 23.9608 5.68629 23.9608 8.21926C23.9608 10.6997 22 12.7209 19.5556 12.8127C19.4426 12.7996 19.3286 12.7996 19.2157 12.8127M21.9085 24.6245C22.8497 24.4277 23.7386 24.0471 24.4706 23.4827C26.5098 21.9472 26.5098 19.4142 24.4706 17.8787C23.7516 17.3275 22.8758 16.96 21.9477 16.75M9.9085 12.6421C9.77778 12.629 9.62092 12.629 9.47712 12.6421C7.97674 12.591 6.55509 11.9555 5.51324 10.8703C4.47139 9.78509 3.89116 8.33535 3.89543 6.8281C3.89543 3.61267 6.48366 1.00095 9.69935 1.00095C11.2369 0.973102 12.7225 1.55963 13.8293 2.63152C14.9362 3.7034 15.5736 5.17282 15.6013 6.71654C15.629 8.26026 15.0448 9.75181 13.9772 10.8631C12.9096 11.9743 11.4461 12.6143 9.9085 12.6421ZM3.37255 17.485C0.20915 19.6111 0.20915 23.0759 3.37255 25.1889C6.96732 27.6037 12.8627 27.6037 16.4575 25.1889C19.6209 23.0627 19.6209 19.5979 16.4575 17.485C12.8758 15.0832 6.98039 15.0832 3.37255 17.485Z" stroke="#9E9E9E" stroke-width="2" stroke-linecap="round" stroke-linejoin="round"/>
</svg>
