<svg width="29" height="27" viewBox="0 0 29 27" fill="none" xmlns="http://www.w3.org/2000/svg">
<path d="M10.3305 24.4667V20.6445C10.3305 19.6688 11.1985 18.8779 12.2693 18.8779H16.1835C16.6977 18.8779 17.1908 19.064 17.5544 19.3953C17.918 19.7266 18.1223 20.176 18.1223 20.6445V24.4667C18.119 24.8723 18.2936 25.2623 18.6072 25.5502C18.9209 25.8381 19.3476 26 19.7928 26H22.4632C23.7104 26.0029 24.9076 25.5536 25.7907 24.751C26.6737 23.9485 27.17 22.8587 27.17 21.7223V10.8336C27.1699 9.91557 26.7234 9.0448 25.9506 8.45584L16.8663 1.84484C15.2861 0.685702 13.022 0.723128 11.4889 1.93372L2.6119 8.45584C1.8026 9.02744 1.31889 9.90079 1.29498 10.8336V21.7112C1.29498 24.0798 3.40227 26 6.00175 26H8.61119C9.5358 26 10.2872 25.3203 10.2939 24.4778L10.3305 24.4667Z" stroke="white" stroke-width="2"/>
</svg>
