<svg width="29" height="27" viewBox="0 0 29 27" fill="none" xmlns="http://www.w3.org/2000/svg">
<path d="M10.3306 24.4667V20.6445C10.3306 19.6688 11.1986 18.8779 12.2694 18.8779H16.1835C16.6977 18.8779 17.1909 19.064 17.5545 19.3953C17.9181 19.7266 18.1223 20.176 18.1223 20.6445V24.4667C18.1191 24.8723 18.2936 25.2623 18.6073 25.5502C18.9209 25.8381 19.3477 26 19.7929 26H22.4633C23.7105 26.0029 24.9077 25.5536 25.7907 24.751C26.6738 23.9485 27.17 22.8587 27.17 21.7223V10.8336C27.17 9.91557 26.7235 9.0448 25.9507 8.45584L16.8664 1.84484C15.2861 0.685702 13.022 0.723128 11.489 1.93372L2.61196 8.45584C1.80266 9.02744 1.31895 9.90079 1.29504 10.8336V21.7112C1.29504 24.0798 3.40233 26 6.00181 26H8.61125C9.53586 26 10.2873 25.3203 10.294 24.4778L10.3306 24.4667Z" stroke="#9E9E9E" stroke-width="2"/>
</svg>
