<svg width="38" height="24" viewBox="0 0 38 24" fill="none" xmlns="http://www.w3.org/2000/svg">
<path d="M4.95147 23.5486C6.73189 23.5486 7.95348 22.8989 9.04515 21.5473L11.3974 18.7011C11.7353 18.2983 12.1252 18.1034 12.5151 18.1034H25.0043C25.394 18.1034 25.7839 18.2983 26.1088 18.7011L28.4612 21.5473C29.5657 22.8989 30.7743 23.5486 32.5679 23.5486C35.5308 23.5486 37.5192 21.5732 37.5192 18.5322C37.5192 17.2326 37.2073 15.7381 36.7136 14.0616C35.9207 11.3975 34.5303 7.77158 33.1915 4.96447C32.087 2.62521 31.515 1.55953 28.76 0.935703C26.3037 0.376934 22.9118 0 18.7531 0C14.5944 0 11.2025 0.376934 8.75927 0.935703C6.00408 1.55953 5.43232 2.62521 4.31465 4.96447C2.98908 7.77158 1.59852 11.3975 0.805726 14.0616C0.298881 15.7381 0 17.2326 0 18.5322C0 21.5732 1.97539 23.5486 4.95147 23.5486ZM8.23943 9.16213C8.23943 8.51238 8.62929 8.10945 9.3181 8.10945H11.6444V5.83518C11.6444 5.17236 12.0342 4.76957 12.684 4.76957C13.3209 4.76957 13.6977 5.17236 13.6977 5.83518V8.10945H15.907C16.6348 8.10945 17.0637 8.51238 17.0637 9.16213C17.0637 9.83795 16.6348 10.2538 15.907 10.2538H13.6977V12.5281C13.6977 13.1909 13.3209 13.6068 12.684 13.6068C12.0342 13.6068 11.6444 13.1909 11.6444 12.5281V10.2538H9.3181C8.62929 10.2538 8.23943 9.83795 8.23943 9.16213ZM24.8353 7.13482C24.8353 6.06914 25.667 5.25035 26.7066 5.25035C27.7593 5.25035 28.578 6.06914 28.578 7.13482C28.578 8.18744 27.7593 8.99323 26.7066 8.99323C25.667 8.99323 24.8353 8.18744 24.8353 7.13482ZM21.0144 10.9815C21.0144 9.91593 21.8332 9.09714 22.8859 9.09714C23.9385 9.09714 24.7443 9.91593 24.7443 10.9815C24.7443 12.0342 23.9385 12.853 22.8859 12.853C21.8332 12.853 21.0144 12.0342 21.0144 10.9815Z" fill="black"/>
</svg>
