<svg width="29" height="29" viewBox="0 0 29 29" fill="none" xmlns="http://www.w3.org/2000/svg">
<path d="M20.5416 22.2696H15.7083L10.3312 25.8462C10.1497 25.9672 9.93884 26.0367 9.721 26.0472C9.50316 26.0577 9.28656 26.0088 9.0943 25.9059C8.90204 25.8029 8.74133 25.6497 8.62932 25.4626C8.51731 25.2754 8.4582 25.0614 8.45829 24.8433V22.2696C4.83329 22.2696 2.41663 19.8529 2.41663 16.2279V8.97792C2.41663 5.35292 4.83329 2.93625 8.45829 2.93625H20.5416C24.1666 2.93625 26.5833 5.35292 26.5833 8.97792V16.2279C26.5833 19.8529 24.1666 22.2696 20.5416 22.2696Z" stroke="#9E9E9E" stroke-width="2" stroke-miterlimit="10" stroke-linecap="round" stroke-linejoin="round"/>
<path d="M14.5 13.7267V13.4729C14.5 12.6512 15.0075 12.2162 15.515 11.8658C16.0104 11.5275 16.5058 11.0925 16.5058 10.295C16.5058 9.18332 15.6116 8.28915 14.5 8.28915C13.3883 8.28915 12.4941 9.18332 12.4941 10.295M14.4939 16.6146H14.506" stroke="#9E9E9E" stroke-width="2" stroke-linecap="round" stroke-linejoin="round"/>
</svg>
