<svg width="29" height="29" viewBox="0 0 29 29" fill="none" xmlns="http://www.w3.org/2000/svg">
<path d="M28 23.0455C28 23.5315 27.8918 24.031 27.662 24.517C27.4321 25.003 27.1347 25.462 26.7426 25.894C26.0801 26.623 25.35 27.1495 24.5253 27.487C23.7141 27.8245 22.8353 28 21.8888 28C20.5098 28 19.0361 27.676 17.4812 27.0145C15.9264 26.353 14.3716 25.462 12.8302 24.3415C11.2593 23.1941 9.77695 21.9306 8.39559 20.5615C7.02838 19.1872 5.76739 17.7115 4.62344 16.147C3.51477 14.608 2.62243 13.069 1.97346 11.5435C1.32449 10.0045 1 8.533 1 7.129C1 6.211 1.16224 5.3335 1.48673 4.5235C1.81122 3.7 2.32499 2.944 3.04156 2.269C3.90686 1.4185 4.85328 1 5.85378 1C6.23235 1 6.61092 1.081 6.94892 1.243C7.30045 1.405 7.61142 1.648 7.85478 1.999L10.9915 6.4135C11.2349 6.751 11.4106 7.0615 11.5323 7.3585C11.654 7.642 11.7216 7.9255 11.7216 8.182C11.7216 8.506 11.6269 8.83 11.4377 9.1405C11.2619 9.451 11.005 9.775 10.6805 10.099L9.65298 11.1655C9.50426 11.314 9.43666 11.4895 9.43666 11.7055C9.43666 11.8135 9.45018 11.908 9.47722 12.016C9.51778 12.124 9.55834 12.205 9.58538 12.286C9.82874 12.7315 10.2479 13.312 10.8428 14.014C11.4512 14.716 12.1002 15.4315 12.8032 16.147C13.5333 16.8625 14.2364 17.524 14.9529 18.1315C15.656 18.7255 16.2374 19.1305 16.697 19.3735C16.7646 19.4005 16.8458 19.441 16.9404 19.4815C17.0486 19.522 17.1567 19.5355 17.2784 19.5355C17.5083 19.5355 17.684 19.4545 17.8327 19.306L18.8603 18.2935C19.1983 17.956 19.5228 17.6995 19.8338 17.5375C20.1447 17.3485 20.4557 17.254 20.7937 17.254C21.0506 17.254 21.321 17.308 21.6184 17.4295C21.9159 17.551 22.2268 17.7265 22.5648 17.956L27.0401 21.1285C27.3916 21.3715 27.635 21.655 27.7837 21.9925C27.9189 22.33 28 22.6675 28 23.0455Z" stroke="#9E9E9E" stroke-width="2" stroke-miterlimit="10"/>
</svg>
