<svg width="26" height="25" viewBox="0 0 26 25" fill="none" xmlns="http://www.w3.org/2000/svg">
<path d="M12.8863 15.7854C13.8321 15.7854 14.7391 15.4097 15.4078 14.741C16.0766 14.0722 16.4523 13.1652 16.4523 12.2195C16.4523 11.2738 16.0766 10.3667 15.4078 9.69801C14.7391 9.02927 13.8321 8.65358 12.8863 8.65358C11.9406 8.65358 11.0336 9.02927 10.3649 9.69801C9.69613 10.3667 9.32043 11.2738 9.32043 12.2195C9.32043 13.1652 9.69613 14.0722 10.3649 14.741C11.0336 15.4097 11.9406 15.7854 12.8863 15.7854Z" stroke="#9E9E9E" stroke-width="2" stroke-miterlimit="10" stroke-linecap="round" stroke-linejoin="round"/>
<path d="M1 13.2654V11.1734C1 9.93724 2.01034 8.91501 3.25841 8.91501C5.40984 8.91501 6.28943 7.39356 5.20777 5.5274C4.58968 4.45763 4.95816 3.06692 6.03982 2.44883L8.09616 1.27208C9.03518 0.713421 10.2476 1.04624 10.8062 1.98526L10.937 2.2111C12.0068 4.07726 13.766 4.07726 14.8476 2.2111L14.9784 1.98526C15.537 1.04624 16.7494 0.713421 17.6885 1.27208L19.7448 2.44883C20.8265 3.06692 21.1949 4.45763 20.5768 5.5274C19.4952 7.39356 20.3748 8.91501 22.5262 8.91501C23.7624 8.91501 24.7846 9.92535 24.7846 11.1734V13.2654C24.7846 14.5016 23.7743 15.5238 22.5262 15.5238C20.3748 15.5238 19.4952 17.0453 20.5768 18.9114C21.1949 19.9931 20.8265 21.3719 19.7448 21.99L17.6885 23.1668C16.7494 23.7254 15.537 23.3926 14.9784 22.4536L14.8476 22.2277C13.7778 20.3616 12.0187 20.3616 10.937 22.2277L10.8062 22.4536C10.2476 23.3926 9.03518 23.7254 8.09616 23.1668L6.03982 21.99C5.52169 21.6917 5.14309 21.2 4.9871 20.6228C4.8311 20.0456 4.91047 19.4302 5.20777 18.9114C6.28943 17.0453 5.40984 15.5238 3.25841 15.5238C2.01034 15.5238 1 14.5016 1 13.2654Z" stroke="#9E9E9E" stroke-width="2" stroke-miterlimit="10" stroke-linecap="round" stroke-linejoin="round"/>
</svg>
