<svg width="36" height="36" viewBox="0 0 36 36" fill="none" xmlns="http://www.w3.org/2000/svg">
<path d="M13.5 22.125L22.5 13.125M29.25 18.75C29.25 17.7554 29.6451 16.8016 30.3483 16.0983C31.0516 15.3951 32.0054 15 33 15V13.5C33 7.5 31.5 6 25.5 6H10.5C4.5 6 3 7.5 3 13.5V14.25C3.99456 14.25 4.94839 14.6451 5.65165 15.3483C6.35491 16.0516 6.75 17.0054 6.75 18C6.75 18.9946 6.35491 19.9484 5.65165 20.6517C4.94839 21.3549 3.99456 21.75 3 21.75V22.5C3 28.5 4.5 30 10.5 30H25.5C31.5 30 33 28.5 33 22.5C32.0054 22.5 31.0516 22.1049 30.3483 21.4017C29.6451 20.6984 29.25 19.7446 29.25 18.75Z" stroke="#9E9E9E" stroke-width="2" stroke-linecap="round" stroke-linejoin="round"/>
<path d="M22.4926 22.125H22.5061M13.4926 13.875H13.5046" stroke="#9E9E9E" stroke-width="2" stroke-linecap="round" stroke-linejoin="round"/>
</svg>
