<svg xmlns="http://www.w3.org/2000/svg" xmlns:xlink="http://www.w3.org/1999/xlink" viewBox="0,0,256,256" width="50px" height="50px" fill-rule="nonzero"><g fill="#000000" fill-rule="nonzero" stroke="#000000" stroke-width="3" stroke-linecap="butt" stroke-linejoin="round" stroke-miterlimit="10" stroke-dasharray="" stroke-dashoffset="0" font-family="none" font-weight="none" font-size="none" text-anchor="none" style="mix-blend-mode: normal"><path transform="scale(5.12,5.12)" d="M16.41406,3.58594l20,20c0.78125,0.78125 0.78125,2.04688 0,2.82813l-20,20c-0.5,0.52344 -1.24609,0.73438 -1.94922,0.55078c-0.69922,-0.18359 -1.24609,-0.73047 -1.42969,-1.42969c-0.18359,-0.70312 0.02734,-1.44922 0.55078,-1.94922l18.58594,-18.58594l-18.58594,-18.58594c-0.58203,-0.56641 -0.76562,-1.42969 -0.45703,-2.18359c0.30469,-0.75391 1.03516,-1.25 1.85156,-1.25c0.53906,0 1.05469,0.21875 1.43359,0.60547z" id="strokeMainSVG"></path></g><g fill="#000000" fill-rule="nonzero" stroke="none" stroke-width="1" stroke-linecap="butt" stroke-linejoin="miter" stroke-miterlimit="10" stroke-dasharray="" stroke-dashoffset="0" font-family="none" font-weight="none" font-size="none" text-anchor="none" style="mix-blend-mode: normal"><g transform="scale(5.12,5.12)"><path d="M14.98047,2.98047c-0.81641,0 -1.54687,0.49609 -1.85156,1.25c-0.30859,0.75391 -0.125,1.61719 0.45703,2.18359l18.58594,18.58594l-18.58594,18.58594c-0.52344,0.5 -0.73437,1.24609 -0.55078,1.94922c0.18359,0.69922 0.73047,1.24609 1.42969,1.42969c0.70313,0.18359 1.44922,-0.02734 1.94922,-0.55078l20,-20c0.78125,-0.78125 0.78125,-2.04687 0,-2.82812l-20,-20c-0.37891,-0.38672 -0.89453,-0.60547 -1.43359,-0.60547z"></path></g></g></svg>