<svg width="27" height="25" viewBox="0 0 27 25" fill="none" xmlns="http://www.w3.org/2000/svg">
<path d="M9.33056 23.4667V19.6445C9.33056 18.6688 10.1986 17.8779 11.2694 17.8779H15.1835C15.6977 17.8779 16.1909 18.064 16.5545 18.3953C16.9181 18.7266 17.1223 19.176 17.1223 19.6445V23.4667C17.1191 23.8723 17.2936 24.2623 17.6073 24.5502C17.9209 24.8381 18.3477 25 18.7929 25H21.4633C22.7105 25.0029 23.9077 24.5536 24.7907 23.751C25.6738 22.9485 26.17 21.8587 26.17 20.7223V9.83357C26.17 8.91558 25.7235 8.0448 24.9507 7.45584L15.8664 0.844836C14.2861 -0.314298 12.022 -0.276872 10.489 0.933724L1.61196 7.45584C0.802658 8.02744 0.318947 8.9008 0.295044 9.83357V20.7112C0.295044 23.0798 2.40233 25 5.00181 25H7.61126C8.53586 25 9.28728 24.3203 9.29398 23.4778L9.33056 23.4667Z" fill="white"/>
</svg>
